# xmcd CD database file
#
# Track frame offsets:
#	150
#	19841
#	30246
#	41682
#	54797
#	66431
#	78680
#	91392
#	107340
#	118933
#	133953
#	147127
#	166190
#	178901
#	188909
#	199063
#	218099
#	233251
#	251109
#	264878
#
# Disc length: 3829 seconds
#
# Revision: 0
# Processed by: cddbd v1.5.2PL0 Copyright (c) Steve Scherf et al.
# Submitted via: CDex 1.70beta2
#
DISCID=130ef314
DTITLE=Country Hits - 100 Essential Tracks Country Hits CD 2
DYEAR=2009
DGENRE=Country
TTITLE0=Kenny Rogers - Coward Of The County
TTITLE1=Johnny Cash - Big River
TTITLE2=Don Gibson - Sea Of Heartbreak
TTITLE3=Lynn Anderson - Rose Garden
TTITLE4=Elvis Presley - A Fool Such As I
TTITLE5=Bobby Bare - 500 Miles
TTITLE6=Charlie Pride - Crystal Chandeliers
TTITLE7=Willie Nelson - Always On My Mind
TTITLE8=Stella Parton - The Danger Of A Stranger
TTITLE9=Don Williams - Just As Long As I Have You
TTITLE10=Charlie Rich - Behind Closed Doors
TTITLE11=Bobby Gentry - Ode To Billy Joe
TTITLE12=Buck Owens - Streets Of Bakersfield
TTITLE13=George Hamilton IV - Abeline
TTITLE14=Tom T Hall - The Last Country Song
TTITLE15=Waylon Jennings - I've Always Been Crazy
TTITLE16=Jessi Colter - I'm Not Lisa
TTITLE17=Jerry Jeff Walker - Mr Bojangles
TTITLE18=George Jones - A Good Year For The Roses
TTITLE19=Vern Gosdin - The First Time Ever I Saw Your Face
EXTD=YEAR: 2009
EXTT0=
EXTT1=
EXTT2=
EXTT3=
EXTT4=
EXTT5=
EXTT6=
EXTT7=
EXTT8=
EXTT9=
EXTT10=
EXTT11=
EXTT12=
EXTT13=
EXTT14=
EXTT15=
EXTT16=
EXTT17=
EXTT18=
EXTT19=
PLAYORDER=
